<svg width="139" height="166" viewBox="0 0 139 166" fill="none" xmlns="http://www.w3.org/2000/svg">
<g clip-path="url(#clip0_293_202)">
<path d="M129.014 14.0525H19.3704C15.3483 14.0525 12.0777 17.2839 12.0777 21.2579V95.494C12.0777 99.4679 15.3483 102.699 19.3704 102.699H129.014C133.036 102.699 136.307 99.4679 136.307 95.494V21.2579C136.307 17.2839 133.036 14.0525 129.014 14.0525Z" fill="#F2F2F2"/>
<path d="M117.119 19.7705H7.47496C3.45286 19.7705 0.182247 23.0019 0.182247 26.9759V101.212C0.182247 105.186 3.45286 108.417 7.47496 108.417H117.119C121.141 108.417 124.411 105.186 124.411 101.212V26.9759C124.411 23.0019 121.141 19.7705 117.119 19.7705ZM123.644 79.3623C123.644 94.9905 110.822 107.66 95.0042 107.66H7.47496C3.87082 107.66 0.949093 104.773 0.949093 101.212V26.9759C0.949093 23.4149 3.87081 20.5282 7.47494 20.5282H117.119C120.723 20.5282 123.644 23.4149 123.644 26.9759V79.3623Z" fill="#3F3D56"/>
<path d="M15.8436 92.3296L15.1947 91.926C15.6165 91.2636 16.0518 90.6215 16.488 90.0176L17.1122 90.4578C16.6844 91.0497 16.2577 91.6794 15.8436 92.3296Z" fill="#CCCCCC"/>
<path d="M20.0719 86.9301L19.523 86.4011C20.6931 85.2163 21.9247 84.1991 23.1831 83.378L23.6059 84.0103C22.3929 84.8016 21.2039 85.784 20.0719 86.9301ZM39.203 82.1477C38.2874 82.1477 37.4531 82.0319 36.8286 81.9309L36.9525 81.1833C37.5853 81.2856 38.3475 81.3901 39.203 81.3901C39.9587 81.3901 40.7013 81.3081 41.4734 81.1393L41.6389 81.8792C40.8118 82.0599 40.015 82.1477 39.203 82.1477ZM27.7286 82.0475L27.498 81.325C28.3217 81.0682 29.1751 80.8758 30.0342 80.7528C30.772 80.6474 31.4775 80.5962 32.1906 80.5962H32.2378V81.3538H32.1906C31.5145 81.3538 30.8452 81.4025 30.1441 81.5027C29.3258 81.6198 28.5129 81.8031 27.7286 82.0475ZM46.0069 79.8579L45.5168 79.2752C46.5749 78.4068 47.3334 77.3567 48.1365 76.2448L48.4569 75.8025L49.0792 76.2453L48.7607 76.6848C47.928 77.8378 47.1413 78.9269 46.0069 79.8579ZM52.1567 72.9109L51.6849 72.3134C52.7185 71.5166 53.8864 70.8708 55.255 70.3394C55.488 70.2487 55.7108 70.1679 55.9246 70.0959L56.1721 70.8129C55.9688 70.8815 55.7573 70.9583 55.5356 71.0445C54.2365 71.5489 53.1313 72.1594 52.1567 72.9109ZM61.4144 70.2792C61.1564 70.2792 60.9117 70.2768 60.6766 70.2743L60.6856 69.5166C60.926 69.5194 61.1768 69.5199 61.4423 69.5216C62.3447 69.5216 63.6015 69.4962 65.3254 69.2991L65.4138 70.0515C63.633 70.2554 62.3563 70.2767 61.4144 70.2792ZM70.0785 69.287L69.9265 68.5445C71.3039 68.2693 72.9063 67.9417 74.4924 67.5373L74.6841 68.271C73.0798 68.6799 71.4656 69.0099 70.0785 69.287ZM79.2013 66.8346L78.9145 66.1319C80.4521 65.5194 81.7872 64.8287 82.9962 64.02L83.4261 64.6474C82.1717 65.4865 80.7896 66.202 79.2013 66.8346ZM86.9493 61.4207L86.327 60.9779C86.541 60.6845 86.726 60.3983 86.9048 60.1216C87.4327 59.3047 87.9788 58.46 89.2791 57.423L89.3701 57.351L89.8452 57.9455L89.7608 58.0123C88.5577 58.972 88.0689 59.7285 87.551 60.5295C87.3666 60.8149 87.1757 61.1101 86.9493 61.4207ZM93.8287 55.7382L93.549 55.0327C94.9156 54.5033 96.4593 54.0773 98.1369 53.7664L98.2785 54.5111C96.648 54.8133 95.1508 55.2262 93.8287 55.7382Z" fill="#CCCCCC"/>
<path d="M102.966 53.9545L102.918 53.1984C103.663 53.1523 104.442 53.122 105.233 53.1079L105.247 53.8656C104.467 53.8793 103.699 53.9092 102.966 53.9545Z" fill="#CCCCCC"/>
<path d="M24.3947 27.9802H13.6358C13.0952 27.9802 12.6543 28.4159 12.6543 28.95C12.6543 29.488 13.0952 29.9236 13.6358 29.9236H24.3947C24.9353 29.9236 25.3763 29.488 25.3763 28.95C25.3763 28.4159 24.9353 27.9802 24.3947 27.9802Z" fill="#E6E6E6"/>
<path d="M42.4156 27.9802H31.6567C31.1161 27.9802 30.6752 28.4159 30.6752 28.95C30.6752 29.488 31.1161 29.9236 31.6567 29.9236H42.4156C42.9562 29.9236 43.3972 29.488 43.3972 28.95C43.3972 28.4159 42.9562 27.9802 42.4156 27.9802Z" fill="#E6E6E6"/>
<path d="M60.4365 27.9802H49.6776C49.137 27.9802 48.696 28.4159 48.696 28.95C48.696 29.488 49.137 29.9236 49.6776 29.9236H60.4365C60.9771 29.9236 61.418 29.488 61.418 28.95C61.418 28.4159 60.9771 27.9802 60.4365 27.9802Z" fill="#E6E6E6"/>
<path d="M110.416 91.7488H12.6435V92.5064H110.416V91.7488Z" fill="#E6E6E6"/>
<path d="M105.252 36.4391C98.2926 36.6171 93.101 38.6401 89.8113 42.4436C88.5958 43.8528 88.1012 44.9628 87.5797 46.1372C87.0621 47.2964 86.533 48.4897 85.3022 50.0467V48.7587C86.0652 47.6525 86.4755 46.7281 86.8781 45.8303C87.4225 44.6029 87.9401 43.4437 89.2284 41.9549C92.6639 37.9771 98.0472 35.867 105.229 35.6814L105.252 36.4391Z" fill="#CCCCCC"/>
<path d="M87.5797 46.1374C87.0621 47.2966 86.533 48.4899 85.3022 50.0469C85.1565 50.2325 84.9993 50.4258 84.8306 50.6265C80.3905 55.8431 74.459 57.5554 69.6892 58.9343C69.3901 59.0215 69.0987 59.101 68.815 59.1768C64.5743 60.3133 62.2508 60.2716 60.5215 60.2451C58.7846 60.2148 57.6382 60.1958 55.5869 61.3551C51.8255 63.4728 50.2841 66.5716 48.7926 69.5682C47.2551 72.6519 45.8058 75.5651 42.1096 76.9327C39.5445 77.8798 37.7424 77.41 35.8368 76.9175C34.1995 76.4894 31.2488 65.9526 28.6361 64.416C23.2413 65.5336 19.9631 82.9523 15.8719 92.2792L15.1664 91.9761C19.3649 82.4144 22.8234 64.8479 28.475 63.6735C30.9941 63.1508 34.3107 75.7356 36.0323 76.1826C37.819 76.6486 39.5023 77.0842 41.8412 76.2205C45.2536 74.9628 46.5726 72.3071 48.1025 69.2348C49.5748 66.2799 51.2427 62.931 55.2035 60.6959C57.4388 59.4344 58.7386 59.4571 60.5331 59.4874C62.2431 59.5177 64.5513 59.5556 68.815 58.3926C69.0297 58.332 69.2483 58.2714 69.4745 58.207C74.1446 56.8583 79.9534 55.1801 84.2401 50.1416C84.6619 49.6454 85.0108 49.187 85.3022 48.7589C86.0652 47.6527 86.4754 46.7283 86.878 45.8305C87.4225 44.6031 88.1012 44.963 87.5797 46.1374Z" fill="#A64B98"/>
<path d="M46.6917 132.807C46.3882 131.763 45.8684 130.872 45.2496 130.237L43.0013 120.11L38.1007 121.297L40.909 131.441C40.7243 132.299 40.7613 133.324 41.0648 134.368C41.7582 136.753 43.5799 138.338 45.1337 137.907C46.6876 137.476 47.3851 135.192 46.6917 132.807Z" fill="#FFB6B6"/>
<path d="M46.0137 66.3818C46.0137 66.3818 38.2746 66.2252 36.3067 71.7936C34.5156 76.862 32.3922 90.7866 33.5401 91.5912L38.4259 125.87L45.393 124.924L43.6049 83.7946L46.0137 66.3818Z" fill="#A64B98"/>
<path d="M81.8514 130.011L80.4787 166H62.2661L61.5299 149.873L58.2939 166H38.7738L41.2085 138.277L43.7238 132.447L45.4262 128.496L81.8514 130.011Z" fill="#2F2E41"/>
<path d="M67.141 59.1495L54.488 58.3918L50.2703 63.6955L41.0682 67.105L45.2858 107.64L43.3687 131.885C43.3687 131.885 70.2083 153.1 81.711 129.612L78.6437 101.2L79.4105 68.2415L70.5918 64.4532L67.141 59.1495Z" fill="#A64B98"/>
<path d="M91.6403 50.3276C91.7776 51.641 91.6032 52.8762 91.2018 53.8665L93.3095 66.2967L87.2937 67.1146L85.8033 54.4173C85.2055 53.529 84.7793 52.3551 84.6421 51.0417C84.3284 48.0413 85.6408 45.4491 87.5733 45.2519C89.5058 45.0547 91.3266 47.3272 91.6403 50.3276Z" fill="#FFB6B6"/>
<path d="M81.1619 70.0632C79.0881 66.561 73.9438 66.2309 71.6398 69.5897C71.0099 70.5079 71.1854 71.54 71.035 72.7801C70.3966 78.0445 80.6069 93.6007 87.6718 95.3918C88.5989 95.6269 89.127 96.6149 90.0628 96.8136C92.8347 97.4023 95.4156 95.2284 95.266 92.431L93.3469 56.5525L85.2846 59.2695L85.8007 77.8969L81.1619 70.0632Z" fill="#A64B98"/>
<path d="M62.2679 57.8098C68.4232 57.8098 73.4131 52.8796 73.4131 46.7979C73.4131 40.7163 68.4232 35.7861 62.2679 35.7861C56.1125 35.7861 51.1226 40.7163 51.1226 46.7979C51.1226 52.8796 56.1125 57.8098 62.2679 57.8098Z" fill="#FFB6B6"/>
<path d="M72.6492 38.7121C72.5534 38.7348 74.1163 37.2297 74.1829 37.1968C75.7166 36.4391 74.1407 43.8453 73.0326 43.6369C70.3065 43.1255 69.1294 42.1102 68.0711 44.6446C67.7759 45.3492 67.5919 46.1448 67.0167 46.6486C66.2269 47.3343 64.9156 47.2775 64.2714 48.0958C63.7538 48.755 63.9033 49.7248 64.2868 50.4673C64.6702 51.2136 65.253 51.8462 65.6019 52.6077C65.993 53.4638 64.3251 56.1876 63.6886 57.7181V57.7219L63.6848 57.7309C63.5157 58.1323 63.1138 56.9759 62.6895 56.8605C62.1818 56.7223 61.4338 57.9069 60.6251 57.6916C60.6212 57.6916 60.6174 57.6878 60.6136 57.6878C59.8429 57.4757 58.984 57.2484 58.1328 57.0211H58.129C55.7326 56.3771 55.1268 57.3014 55.0118 57.2749L53.5241 55.7368C53.0135 55.3696 53.0712 54.1838 52.7112 53.8654C52.4168 53.605 51.6828 54.2068 51.4665 53.9564C50.4058 52.729 50.1617 51.5011 49.5365 49.077C48.9652 46.8608 47.7804 40.2274 50.2151 39.9281C52.5118 39.644 50.8324 36.4845 53.1445 36.602C53.0065 36.0262 53.2633 35.4087 53.6813 34.9844C54.0954 34.5563 54.6475 34.2911 55.2035 34.0638C57.945 32.9576 57.4887 32.0068 60.3797 32.6508C60.6672 32.253 64.8427 32.5182 65.3642 32.6508C65.4025 32.6583 64.072 32.9728 66.131 32.6508C66.0543 33.1167 67.358 33.3213 67.2813 33.7873C67.5689 33.4046 70.6593 35.6019 70.7321 36.0603C70.828 36.6323 69.9537 36.3406 70.5366 36.4277C70.8816 36.4808 71.4721 37.174 71.4146 37.5188C71.6638 37.1854 71.9131 36.8558 72.1661 36.5224C72.2121 36.5262 72.2543 36.5338 72.3003 36.5414C73.4659 36.7611 72.1296 40.5259 72.1776 39.3523C72.2658 37.1968 73.811 38.4583 72.6492 38.7121Z" fill="#2F2E41"/>
<path d="M115.347 97.322C115.433 97.531 115.729 97.531 115.815 97.322C116.414 95.8637 117.266 94.2306 118.193 92.9825C118.342 92.7827 118.137 92.5157 117.901 92.6L115.914 93.3104V81.155H115.249V93.3104L113.261 92.5999C113.025 92.5156 112.82 92.7826 112.968 92.9825C113.896 94.2305 114.748 95.8637 115.347 97.322Z" fill="#3F3D56"/>
<path d="M128.38 109.838C128.316 110.054 128.548 110.236 128.747 110.125C130.133 109.351 131.829 108.596 133.34 108.188C133.582 108.123 133.59 107.788 133.352 107.709L131.349 107.045L139 97.5257L138.479 97.1169L130.828 106.636L129.718 104.858C129.587 104.647 129.258 104.73 129.249 104.978C129.189 106.525 128.829 108.328 128.38 109.838Z" fill="#3F3D56"/>
<path d="M122.156 117.949H109.226C108.423 117.949 107.77 117.304 107.77 116.511C106.061 111.574 106.095 106.737 107.77 101.993C107.77 101.2 108.423 100.554 109.226 100.554H122.156C122.959 100.554 123.612 101.2 123.612 101.993V116.511C123.612 117.304 122.959 117.949 122.156 117.949Z" fill="#E6E6E6"/>
<path d="M111.997 100.983C109.902 100.983 108.204 102.66 108.204 104.73V116.203C108.204 116.931 108.801 117.521 109.538 117.521H116.688C120.272 117.521 123.178 114.65 123.178 111.109V102.301C123.178 101.573 122.581 100.983 121.844 100.983H111.997Z" fill="white"/>
<path d="M118.702 105.202H112.649C112.496 105.202 112.372 105.079 112.372 104.928C112.372 104.778 112.496 104.655 112.649 104.655H118.702C118.855 104.655 118.979 104.778 118.979 104.928C118.979 105.079 118.855 105.202 118.702 105.202Z" fill="#E6E6E6"/>
<path d="M118.702 111.033H112.649C112.496 111.033 112.372 110.911 112.372 110.76C112.372 110.609 112.496 110.486 112.649 110.486H118.702C118.855 110.486 118.979 110.609 118.979 110.76C118.979 110.911 118.855 111.033 118.702 111.033Z" fill="#E6E6E6"/>
<path d="M121.951 108.119H109.4C109.248 108.119 109.124 107.997 109.124 107.846C109.124 107.695 109.248 107.573 109.4 107.573H121.951C122.103 107.573 122.227 107.695 122.227 107.846C122.227 107.997 122.103 108.119 121.951 108.119Z" fill="#E6E6E6"/>
<path d="M122.099 113.404H116.862C116.709 113.404 116.585 113.281 116.585 113.131C116.585 112.98 116.709 112.857 116.862 112.857H122.099C122.251 112.857 122.375 112.98 122.375 113.131C122.375 113.281 122.251 113.404 122.099 113.404Z" fill="#E6E6E6"/>
<path d="M4.77871 9.36563C7.41792 9.36563 9.55742 7.29628 9.55742 4.7436C9.55742 2.19093 7.41792 0.121582 4.77871 0.121582C2.1395 0.121582 0 2.19093 0 4.7436C0 7.29628 2.1395 9.36563 4.77871 9.36563Z" fill="#A64B98"/>
<path d="M43.0876 3.16244H17.3657C16.4833 3.16244 15.7653 2.45308 15.7653 1.58122C15.7653 0.709361 16.4833 0 17.3657 0H43.0876C43.97 0 44.688 0.709361 44.688 1.58122C44.688 2.45308 43.97 3.16244 43.0876 3.16244Z" fill="#F2F2F2"/>
<path d="M63.1611 8.51424H17.3657C16.4833 8.51424 15.7653 7.80488 15.7653 6.93302C15.7653 6.06117 16.4833 5.35181 17.3657 5.35181H63.1611C64.0435 5.35181 64.7615 6.06117 64.7615 6.93302C64.7615 7.80488 64.0435 8.51424 63.1611 8.51424Z" fill="#F2F2F2"/>
</g>
<defs>
<clipPath id="clip0_293_202">
<rect width="139" height="166" fill="white"/>
</clipPath>
</defs>
</svg>
